<?xml version="1.0" encoding="UTF-8" standalone="no"?>
<svg
   xmlns:dc="http://purl.org/dc/elements/1.1/"
   xmlns:cc="http://creativecommons.org/ns#"
   xmlns:rdf="http://www.w3.org/1999/02/22-rdf-syntax-ns#"
   xmlns:svg="http://www.w3.org/2000/svg"
   xmlns="http://www.w3.org/2000/svg"
   xmlns:sodipodi="http://sodipodi.sourceforge.net/DTD/sodipodi-0.dtd"
   xmlns:inkscape="http://www.inkscape.org/namespaces/inkscape"
   width="130"
   height="32"
   viewBox="0 0 130 32"
   fill="none"
   version="1.1"
   id="svg19"
   sodipodi:docname="opencv.svg"
   inkscape:version="0.92.4 (5da689c313, 2019-01-14)">
  <metadata
     id="metadata23">
    <rdf:RDF>
      <cc:Work
         rdf:about="">
        <dc:format>image/svg+xml</dc:format>
        <dc:type
           rdf:resource="http://purl.org/dc/dcmitype/StillImage" />
      </cc:Work>
    </rdf:RDF>
  </metadata>
  <sodipodi:namedview
     pagecolor="#ffffff"
     bordercolor="#666666"
     borderopacity="1"
     objecttolerance="10"
     gridtolerance="10"
     guidetolerance="10"
     inkscape:pageopacity="0"
     inkscape:pageshadow="2"
     inkscape:window-width="1920"
     inkscape:window-height="1017"
     id="namedview21"
     showgrid="false"
     inkscape:zoom="5.8615385"
     inkscape:cx="83.868011"
     inkscape:cy="40.366557"
     inkscape:window-x="-8"
     inkscape:window-y="-8"
     inkscape:window-maximized="1"
     inkscape:current-layer="svg19" />
  <path
     d="M125 0H31V32H125C127.761 32 130 29.7614 130 27V5C130 2.23858 127.761 0 125 0Z"
     fill="#0F1418"
     id="path2" />
  <path
     d="M31 0H5C2.23858 0 0 2.23858 0 5V27C0 29.7614 2.23858 32 5 32H31V0Z"
     fill="#DD0031"
     id="path4" />
  <g
     aria-label="OpenCV"
     style="font-style:normal;font-weight:normal;font-size:17.57497787px;line-height:1.25;font-family:sans-serif;letter-spacing:0px;word-spacing:0px;fill:#ffffff;fill-opacity:1;stroke:none;stroke-width:0.43937442"
     id="text4535">
    <path
       d="m 51.174777,10.781691 q 1.956589,0 3.355379,0.798083 1.407371,0.789501 2.12822,2.256943 0.720849,1.45886 0.720849,3.432612 0,1.458861 -0.394751,2.651694 -0.39475,1.192833 -1.184251,2.068149 -0.789501,0.875316 -1.939427,1.338719 -1.149925,0.463403 -2.63453,0.463403 -1.476023,0 -2.643112,-0.471984 -1.167088,-0.480566 -1.948008,-1.347301 -0.780919,-0.866735 -1.184251,-2.085312 -0.394751,-1.218578 -0.394751,-2.634531 0,-1.450279 0.411914,-2.660275 0.420495,-1.209996 1.209996,-2.059567 0.789501,-0.849572 1.922263,-1.295812 1.132763,-0.454821 2.57446,-0.454821 z m 3.621406,6.470475 q 0,-1.381626 -0.446239,-2.394247 -0.44624,-1.012621 -1.278648,-1.527513 -0.823828,-0.523473 -1.896519,-0.523473 -0.763756,0 -1.415953,0.291772 -0.643615,0.28319 -1.115599,0.832408 -0.463403,0.549218 -0.738012,1.407372 -0.266027,0.849571 -0.266027,1.913681 0,1.072692 0.266027,1.939427 0.274609,0.866734 0.763757,1.441697 0.497728,0.566381 1.132762,0.849572 0.643615,0.28319 1.407371,0.28319 0.978295,0 1.79354,-0.489147 0.823827,-0.489147 1.304393,-1.51035 0.489147,-1.021202 0.489147,-2.514389 z"
       style="font-style:normal;font-variant:normal;font-weight:normal;font-stretch:normal;font-family:'Arial Rounded MT Bold';-inkscape-font-specification:'Arial Rounded MT Bold, ';stroke-width:0.43937442"
       id="path4537"
       inkscape:connector-curvature="0" />
    <path
       d="m 61.575594,15.578768 v 0.28319 q 0.660778,-0.815245 1.373045,-1.192833 0.712267,-0.386169 1.613328,-0.386169 1.081273,0 1.990915,0.5578 0.909643,0.557799 1.433116,1.630491 0.532055,1.072691 0.532055,2.540133 0,1.081273 -0.308935,1.990916 -0.300354,0.901061 -0.832409,1.518931 -0.532055,0.609289 -1.261485,0.943969 -0.720848,0.326098 -1.553257,0.326098 -1.004039,0 -1.690562,-0.403332 -0.677941,-0.403332 -1.295811,-1.184252 v 3.518429 q 0,1.544675 -1.124181,1.544675 -0.660778,0 -0.875316,-0.403332 -0.214539,-0.39475 -0.214539,-1.158506 V 15.595931 q 0,-0.66936 0.291773,-0.995458 0.291772,-0.33468 0.798082,-0.33468 0.497729,0 0.806664,0.343261 0.317517,0.33468 0.317517,0.969714 z m 4.591119,3.406868 q 0,-0.926806 -0.28319,-1.587584 -0.283191,-0.669359 -0.789501,-1.021202 -0.497729,-0.360424 -1.107018,-0.360424 -0.969713,0 -1.639072,0.763756 -0.660778,0.763756 -0.660778,2.248361 0,1.39879 0.660778,2.17971 0.660778,0.772338 1.639072,0.772338 0.583544,0 1.081273,-0.33468 0.497729,-0.343262 0.798083,-1.021203 0.300353,-0.677941 0.300353,-1.639072 z"
       style="font-style:normal;font-variant:normal;font-weight:normal;font-stretch:normal;font-family:'Arial Rounded MT Bold';-inkscape-font-specification:'Arial Rounded MT Bold, ';stroke-width:0.43937442"
       id="path4539"
       inkscape:connector-curvature="0" />
    <path
       d="m 76.936536,19.603506 h -4.582538 q 0.0086,0.798083 0.317516,1.407371 0.317517,0.609289 0.832409,0.918224 0.523473,0.308936 1.149925,0.308936 0.420495,0 0.763757,-0.0944 0.351842,-0.102979 0.677941,-0.308936 0.326098,-0.214538 0.600707,-0.454821 0.274609,-0.240283 0.712267,-0.652196 0.180212,-0.154468 0.514892,-0.154468 0.360424,0 0.583544,0.197376 0.22312,0.197375 0.22312,0.557799 0,0.317517 -0.248864,0.746593 -0.248865,0.420495 -0.755175,0.815246 -0.497729,0.386169 -1.261485,0.643615 -0.755175,0.257446 -1.742051,0.257446 -2.256943,0 -3.509847,-1.28723 -1.252904,-1.28723 -1.252904,-3.492684 0,-1.038365 0.308935,-1.922263 0.308935,-0.892479 0.901061,-1.527513 0.592126,-0.635033 1.458861,-0.969713 0.866734,-0.343261 1.922263,-0.343261 1.373045,0 2.35134,0.583544 0.986876,0.574963 1.476023,1.493187 0.489148,0.918224 0.489148,1.870774 0,0.883898 -0.506311,1.149925 -0.50631,0.257446 -1.424534,0.257446 z m -4.582538,-1.330137 h 4.247858 q -0.08581,-1.201415 -0.652196,-1.793541 -0.5578,-0.600707 -1.476024,-0.600707 -0.875316,0 -1.441697,0.609289 -0.5578,0.600707 -0.677941,1.784959 z"
       style="font-style:normal;font-variant:normal;font-weight:normal;font-stretch:normal;font-family:'Arial Rounded MT Bold';-inkscape-font-specification:'Arial Rounded MT Bold, ';stroke-width:0.43937442"
       id="path4541"
       inkscape:connector-curvature="0" />
    <path
       d="m 82.960771,15.561604 v 0.283191 q 0.61787,-0.815246 1.3473,-1.192833 0.738012,-0.386169 1.690562,-0.386169 0.926806,0 1.656236,0.403332 0.72943,0.403332 1.089854,1.141344 0.231702,0.429077 0.300354,0.926805 0.06865,0.497729 0.06865,1.270067 v 4.359418 q 0,0.703686 -0.326098,1.06411 -0.317517,0.360425 -0.832408,0.360425 -0.523474,0 -0.849572,-0.369006 -0.326098,-0.369006 -0.326098,-1.055529 v -3.904597 q 0,-1.158506 -0.326099,-1.767795 -0.317516,-0.617871 -1.278648,-0.617871 -0.626452,0 -1.141344,0.377588 -0.514892,0.369006 -0.755175,1.021202 -0.17163,0.523474 -0.17163,1.956589 v 2.934884 q 0,0.712268 -0.33468,1.072692 -0.326098,0.351843 -0.849572,0.351843 -0.50631,0 -0.832408,-0.369006 -0.326098,-0.369006 -0.326098,-1.055529 v -6.770828 q 0,-0.66936 0.291772,-0.995458 0.291772,-0.33468 0.798082,-0.33468 0.308935,0 0.5578,0.145886 0.248864,0.145886 0.39475,0.437658 0.154468,0.291772 0.154468,0.712267 z"
       style="font-style:normal;font-variant:normal;font-weight:normal;font-stretch:normal;font-family:'Arial Rounded MT Bold';-inkscape-font-specification:'Arial Rounded MT Bold, ';stroke-width:0.43937442"
       id="path4543"
       inkscape:connector-curvature="0" />
    <path
       d="m 102.32071,19.603506 q 0,0.600707 -0.30036,1.304393 -0.29177,0.695104 -0.9268,1.373045 -0.63504,0.66936 -1.621912,1.089855 -0.986876,0.420495 -2.29985,0.420495 -0.995458,0 -1.810704,-0.188794 -0.815245,-0.188794 -1.484605,-0.583544 -0.660778,-0.403332 -1.218577,-1.055529 -0.497729,-0.592125 -0.849572,-1.321555 -0.351843,-0.738012 -0.532055,-1.570421 -0.171631,-0.832408 -0.171631,-1.767795 0,-1.518932 0.437659,-2.720346 0.446239,-1.201415 1.270066,-2.050986 0.823827,-0.858154 1.930845,-1.304393 1.107018,-0.44624 2.359921,-0.44624 1.527513,0 2.720346,0.609289 1.192829,0.609289 1.827869,1.51035 0.63503,0.892479 0.63503,1.690561 0,0.437658 -0.30893,0.772338 -0.30894,0.33468 -0.7466,0.33468 -0.48914,0 -0.73801,-0.231701 -0.24028,-0.231702 -0.540636,-0.798083 -0.497729,-0.935387 -1.17567,-1.39879 -0.669359,-0.463402 -1.656236,-0.463402 -1.57042,0 -2.505807,1.192833 -0.926805,1.192833 -0.926805,3.389705 0,1.467442 0.411913,2.445736 0.411914,0.969714 1.167089,1.450279 0.755174,0.480566 1.767795,0.480566 1.098436,0 1.853611,-0.540636 0.763756,-0.549218 1.149926,-1.604747 0.16305,-0.497729 0.40333,-0.806664 0.24028,-0.317517 0.77234,-0.317517 0.45482,0 0.78092,0.317517 0.3261,0.317517 0.3261,0.789501 z"
       style="font-style:normal;font-variant:normal;font-weight:normal;font-stretch:normal;font-family:'Arial Rounded MT Bold';-inkscape-font-specification:'Arial Rounded MT Bold, ';stroke-width:0.43937442"
       id="path4545"
       inkscape:connector-curvature="0" />
    <path
       d="m 106.47417,12.45509 2.84907,8.435646 2.85765,-8.495717 q 0.22312,-0.669359 0.33468,-0.926805 0.11156,-0.266028 0.36901,-0.471985 0.25744,-0.214538 0.70368,-0.214538 0.3261,0 0.60071,0.163049 0.28319,0.163049 0.43766,0.437658 0.16305,0.266028 0.16305,0.540637 0,0.188794 -0.0515,0.411913 -0.0515,0.214539 -0.12873,0.429077 -0.0772,0.205957 -0.15446,0.429077 l -3.04645,8.221107 q -0.16305,0.471985 -0.3261,0.901061 -0.16305,0.420495 -0.37758,0.746594 -0.21454,0.317516 -0.57497,0.523473 -0.35184,0.205957 -0.86673,0.205957 -0.51489,0 -0.87532,-0.205957 -0.35184,-0.197375 -0.57496,-0.523473 -0.21454,-0.33468 -0.37759,-0.755175 -0.16305,-0.420495 -0.3261,-0.89248 l -2.99495,-8.152455 q -0.0772,-0.22312 -0.16305,-0.437658 -0.0772,-0.214539 -0.1373,-0.463403 -0.0515,-0.248864 -0.0515,-0.420495 0,-0.437658 0.35184,-0.798083 0.35184,-0.360424 0.8839,-0.360424 0.65219,0 0.91822,0.403332 0.27461,0.394751 0.5578,1.270067 z"
       style="font-style:normal;font-variant:normal;font-weight:normal;font-stretch:normal;font-family:'Arial Rounded MT Bold';-inkscape-font-specification:'Arial Rounded MT Bold, ';stroke-width:0.43937442"
       id="path4547"
       inkscape:connector-curvature="0" />
  </g>
  <path
     d="M 125,0 H 5 C 2.23858,0 0,2.23858 0,5 v 22 c 0,2.7614 2.23858,5 5,5 h 120 c 2.761,0 5,-2.2386 5,-5 V 5 c 0,-2.76142 -2.239,-5 -5,-5 z"
     id="path10"
     style="fill:url(#paint0_linear)"
     inkscape:connector-curvature="0" />
  <defs
     id="defs17">
    <linearGradient
       id="paint0_linear"
       x1="0"
       y1="0"
       x2="0"
       y2="32"
       gradientUnits="userSpaceOnUse">
      <stop
         stop-color="#BBBBBB"
         stop-opacity="0.1"
         id="stop12" />
      <stop
         offset="1"
         stop-opacity="0.1"
         id="stop14" />
    </linearGradient>
  </defs>
  <g
     id="g4599"
     transform="matrix(0.14753158,0,0,0.14753158,37.746947,25.730144)"
     style="stroke:#ffffff;stroke-width:4.3922801;stroke-miterlimit:4;stroke-dasharray:none">
    <path
       inkscape:connector-curvature="0"
       id="rect4587"
       d="m -150.879,-145.09881 c -2.49458,-0.009 -5.03683,0.20406 -7.60547,0.64453 -8.94685,1.53421 -15.22308,4.75978 -21.14453,10.86719 -8.7769,9.05251 -12.95631,21.65011 -10.90429,32.87305 1.60411,8.773154 6.29936,17.563712 12.22851,22.894527 2.79267,2.51085 5.82171,4.564453 6.73047,4.564453 1.68101,0 12.13086,-16.616134 12.13086,-19.289062 0,-0.748892 -1.13054,-2.425106 -2.51172,-3.722657 -3.35453,-3.151418 -4.86898,-8.949711 -3.56836,-13.660151 4.37454,-15.84329 28.08008,-13.51681 28.08008,2.75585 0,5.13315 -1.65142,9.552327 -4.4336,11.861333 -2.36573,1.963383 -2.00157,3.303905 3.54688,13.0625 3.69969,6.507012 5.65151,8.992187 7.06445,8.992187 2.98747,0 12.58926,-10.251799 15.44531,-16.490234 6.74096,-14.724186 4.01942,-31.494666 -7.02929,-43.306636 -7.30343,-7.80796 -17.21947,-12.00677 -28.0293,-12.04688 z"
       style="opacity:1;vector-effect:none;fill:#ff0000;fill-opacity:1;stroke:#ffffff;stroke-width:4.3922801;stroke-linecap:butt;stroke-linejoin:miter;stroke-miterlimit:4;stroke-dasharray:none;stroke-dashoffset:0;stroke-opacity:1" />
    <path
       style="opacity:1;vector-effect:none;fill:#0000ff;fill-opacity:1;stroke:#ffffff;stroke-width:4.3922801;stroke-linecap:butt;stroke-linejoin:miter;stroke-miterlimit:4;stroke-dasharray:none;stroke-dashoffset:0;stroke-opacity:1"
       d="m -106.18083,8.9756376 c -2.49458,0.009 -5.03683,-0.20406 -7.60547,-0.64453 -8.94685,-1.53421 -15.22308,-4.75978 -21.14453,-10.86719 -8.7769,-9.0525096 -12.95631,-21.6501096 -10.90429,-32.8730496 1.60411,-8.773154 6.29936,-17.563713 12.22851,-22.894528 2.79267,-2.51085 5.82171,-4.564453 6.73047,-4.564453 1.68101,0 12.13086,16.616135 12.13086,19.289063 0,0.748892 -1.13054,2.425106 -2.51172,3.722657 -3.35453,3.151418 -4.86898,8.949711 -3.56836,13.660151 4.37454,15.84329 28.080073,13.51681 28.080073,-2.75585 0,-5.13315 -1.65142,-9.552327 -4.4336,-11.861333 -2.365726,-1.963383 -2.001566,-3.303905 3.54688,-13.062501 3.69969,-6.507012 5.65151,-8.992187 7.06445,-8.992187 2.98747,0 12.58926,10.251799 15.44531,16.490235 6.74096,14.724186 4.01942,31.494666 -7.02929,43.3066356 -7.30343,7.80796 -17.21947,12.00677 -28.029293,12.04688 z"
       id="path4592"
       inkscape:connector-curvature="0" />
    <path
       inkscape:connector-curvature="0"
       id="path4594"
       d="m -227.39135,-9.3786487 c -1.25508,-2.1558693 -2.34169,-4.4640523 -3.24455,-6.9087953 -3.14476,-8.515304 -3.48945,-15.563464 -1.16101,-23.745295 3.45126,-12.127273 12.27139,-22.045548 23.01676,-25.879917 8.39983,-2.997377 18.3603,-3.326451 25.94149,-0.857063 3.5708,1.163098 6.86379,2.759522 7.31817,3.546531 0.84051,1.455797 -8.32456,18.8137 -10.63939,20.150164 -0.64856,0.374446 -2.66547,0.233477 -4.47977,-0.313884 -4.40648,-1.3294 -10.18517,0.258195 -13.61422,3.739785 -11.53342,11.710107 2.33413,31.0764583 16.42667,22.940129 4.44544,-2.566575 7.44685,-6.206336 8.05542,-9.770277 0.51748,-3.030465 1.86048,-3.385354 13.08589,-3.459562 7.48509,-0.04948 10.61322,0.398257 11.31969,1.621899 1.49374,2.587225 -2.58369,16.028519 -6.55831,21.6211482 -9.38104,13.1999356 -25.26547,19.2282528 -41.01929,15.5657744 -10.4136,-2.4209761 -19.0079,-8.9091136 -24.44755,-18.2506373 z"
       style="opacity:1;vector-effect:none;fill:#00ff00;fill-opacity:1;stroke:#ffffff;stroke-width:4.3922801;stroke-linecap:butt;stroke-linejoin:miter;stroke-miterlimit:4;stroke-dasharray:none;stroke-dashoffset:0;stroke-opacity:1" />
  </g>
</svg>
